<?xml version="1.0" encoding="utf-8"?>
<!-- Generator: Adobe Illustrator 16.0.0, SVG Export Plug-In . SVG Version: 6.00 Build 0)  -->
<!DOCTYPE svg PUBLIC "-//W3C//DTD SVG 1.1//EN" "http://www.w3.org/Graphics/SVG/1.1/DTD/svg11.dtd">
<svg version="1.1" id="Layer_4" xmlns="http://www.w3.org/2000/svg" xmlns:xlink="http://www.w3.org/1999/xlink" x="0px" y="0px"
	 width="589.2px" height="1218.9px" viewBox="0 0 589.2 1218.9" style="enable-background:new 0 0 589.2 1218.9;"
	 xml:space="preserve">
<style type="text/css">
<![CDATA[
	.st0{fill:none;stroke:#F48A21;stroke-width:3;stroke-linecap:round;stroke-miterlimit:10;}
	.st1{fill:#E9FDFF;}
	.st2{fill:#8FB0B5;}
	.st3{fill:#F48A21;}

		.st4{fill:none;stroke:#A2C8CC;stroke-width:3;stroke-linecap:round;stroke-linejoin:round;stroke-miterlimit:10;stroke-dasharray:12,12;}
	.st5{fill:#999999;}
	.st6{fill:#FCFABE;}
	.st7{fill:#FFFFFF;}
	.st8{fill:none;stroke:#F48A21;stroke-width:1.6589;stroke-linecap:round;stroke-miterlimit:10;}
	.st9{fill:#738B91;}
	.st10{fill:#A2C8CC;}

		.st11{fill:none;stroke:#738B91;stroke-width:3;stroke-linecap:round;stroke-linejoin:round;stroke-miterlimit:10;stroke-dasharray:12,12;}
]]>
</style>

<!-- FEW CLOUDS 801 - DAY SVG -->
<g id="few-clouds-day">
	<circle class="st3" cx="158.1" cy="213.8" r="26"/>
	<g>
		<line class="st0" x1="156.7" y1="183" x2="156.7" y2="172"/>
		<line class="st0" x1="156.7" y1="245" x2="156.7" y2="255"/>
		<line class="st0" x1="193.2" y1="215.5" x2="202.2" y2="215.5"/>
		<line class="st0" x1="118.2" y1="215.5" x2="125.2" y2="215.5"/>
		<line class="st8" x1="187.1" y1="197.9" x2="194.6" y2="193.6"/>
		<line class="st8" x1="175.4" y1="185.7" x2="179.8" y2="178.2"/>
		<line class="st8" x1="129.6" y1="197.9" x2="122.1" y2="193.6"/>
		<line class="st8" x1="141.5" y1="185.7" x2="137.2" y2="178.2"/>
		<line class="st8" x1="129.4" y1="229.6" x2="121.9" y2="233.9"/>
		<line class="st8" x1="140.8" y1="241.5" x2="136.5" y2="249"/>
		<line class="st8" x1="187.2" y1="229.6" x2="194.7" y2="233.9"/>
		<line class="st8" x1="175.8" y1="241.5" x2="180.1" y2="249"/>
	</g>
	<path class="st7" d="M141.5,219.7c0-17.3-14-31.4-31.3-31.4s-31.4,14.1-31.4,31.4c0,0-26.4-1.7-26.4,26.4
		c0,25.8,27.9,24.9,27.9,24.9h92.6c0,0,21.2,0.4,21.2-16.7c0-17.8-19.9-17.1-19.9-17.1s1.2-11.1-10-17.8
		C151.5,212,141.5,219.7,141.5,219.7z"/>
</g>

<!-- VIOLENT STORM 900-902, 962 - SVG -->
<g id="extreme-storm">
	<path class="st2" d="M421.5,1039.9c0-17.3-14-31.4-31.3-31.4s-31.4,14.1-31.4,31.4c0,0-26.4-0.3-26.4,27.8
		c0,25.8,27.9,26.3,27.9,26.3h92.6c0,0,21.2-1,21.2-18.1c0-17.8-19.9-17.8-19.9-17.8s1.2-11.5-10-18.1
		C431.5,1032.5,421.5,1039.9,421.5,1039.9z"/>
	<path class="st7" d="M472.3,1070.2c-12.3,3.7-23,14.6-31.4,23.8c-7.4,8.1-16.1,18.9-16.7,30.4c-5,2.2-10.2,3.7-15.4,4
		c-7.3,0.3-11.1-5-12.2-11.6c-0.8-5-0.1-9.4,1.6-13.6c12.9-6.3,25.4-14.9,36.6-23.6c8.8-6.8,16.8-14.7,23.7-23.5
		c3.6-4.6,6.7-9.5,9.5-14.5c2.5-4.4,5.6-9.5,6-14.7c1-14.1-24.5-2-28.7,2.6c-1.2,1.3,1,3,2.2,1.7c4.4-4.8,13.1-8.2,19.6-8
		c11.1,0.3-5,23-7.3,26.4c-2,3-4.2,5.9-6.6,8.6c0,0-0.1,0-0.1,0c-19.7,1.7-38.2,16.7-50.1,31.5c-2.8,3.5-5.5,7.4-7.3,11.5
		c-1.1,0.6-2.2,1.1-3.4,1.6c-6.4,2.9-13.8,6.1-21,6c-9.4-0.1-4.1-10.8-1.5-15.5c5.5-10.2,13.7-19.9,22.3-27.6c0.8-0.7,1.7-1.4,2.5-2
		c1.4-1.1-0.3-3.3-1.7-2.2c-8.6,6.5-15.6,15.5-21.6,24.3c-3.8,5.5-9.4,13.4-8,20.5c2.3,11.7,24.6,1.5,30.2-1c0.3-0.1,0.6-0.3,1-0.4
		c-0.6,2-0.9,4-1,6.1c-0.2,6.5,1,14,6.7,17.9c6.7,4.7,15.9,2.3,24-1.6c0.1,0.8,0.1,1.5,0.3,2.3c2.5,14.4,22.1,7.5,30.9,5
		c1.7-0.5,0.6-3-1.1-2.5c-6.7,1.9-20,7.4-25.6,0.7c-1.6-1.9-2.2-4.1-2.3-6.5c4-2,7.6-4.3,10.4-6.1c14.6-9.3,27.9-22.4,38.2-36.3
		c2.1-2.8,6.1-7.8,5-11.6C479.1,1069,474.8,1069.4,472.3,1070.2z"/>
</g>

<!-- CLOUDY 804 - SVG -->
<g id="cloudy">
	<path class="st5" d="M209.3,442.8c0-11.3-9.1-20.4-20.4-20.4s-20.4,9.2-20.4,20.4c0,0-17.2-1.7-17.2,16.6
		c0,16.8,18.2,15.6,18.2,15.6h60.3c0,0,13.8,0.8,13.8-10.3c0-11.6-13-10.9-13-10.9s0.8-7.1-6.5-11.4
		C215.9,437.6,209.3,442.8,209.3,442.8z"/>
	<path class="st1" d="M162.5,461.2c0-17.3-14-31.4-31.3-31.4s-31.4,14.1-31.4,31.4c0,0-26.4-0.9-26.4,27.1
		c0,25.8,27.9,25.7,27.9,25.7h92.6c0,0,21.2-0.4,21.2-17.5c0-17.8-19.9-17.5-19.9-17.5s1.2-11.3-10-18
		C172.5,453.6,162.5,461.2,162.5,461.2z"/>
</g>

<!-- SCATTERED CLOUDS 802 & 803 - SVG -->
<path id="scattered-clouds" class="st1" d="M162.5,330.6c0-17.3-14-31.4-31.3-31.4s-31.4,14.1-31.4,31.4c0,0-26.4-1.1-26.4,26.9
	c0,25.8,27.9,25.5,27.9,25.5h92.6c0,0,21.2-0.2,21.2-17.2c0-17.8-19.9-17.4-19.9-17.4s1.2-11.3-10-17.9
	C172.5,323,162.5,330.6,162.5,330.6z"/>

<!-- LIGHT RAIN / DRIZZLE 300 - SVG -->
<g id="drizzle-light-rain">
	<path class="st5" d="M209.3,556.7c0-11.3-9.1-20.4-20.4-20.4s-20.4,9.2-20.4,20.4c0,0-17.2,0.4-17.2,18.6
		c0,16.8,18.2,17.7,18.2,17.7h60.3c0,0,13.8-1.2,13.8-12.3c0-11.6-13-11.9-13-11.9s0.8-7.6-6.5-11.9
		C215.9,552,209.3,556.7,209.3,556.7z"/>
	<path class="st1" d="M162.5,575.1c0-17.3-14-31.4-31.3-31.4s-31.4,14.1-31.4,31.4c0,0-26.4-0.9-26.4,27.2
		c0,25.8,27.9,25.7,27.9,25.7h92.6c0,0,21.2-0.5,21.2-17.5c0-17.8-19.9-17.5-19.9-17.5s1.2-11.3-10-18
		C172.5,567.5,162.5,575.1,162.5,575.1z"/>
	<g>
		<g>
			<g>
				<path class="st9" d="M106,614.2c0,12.6,0,25.3,0,37.9c0,1.8,2.8,1.8,2.8,0c0-12.6,0-25.3,0-37.9
					C108.8,612.4,106,612.4,106,614.2L106,614.2z"/>
			</g>
		</g>
		<line class="st11" x1="129.7" y1="606" x2="129.7" y2="652"/>
		<g>
			<g>
				<path class="st9" d="M147.6,615c0,12.6,0,25.2,0,37.9c0,1.8,2.8,1.8,2.8,0c0-12.6,0-25.2,0-37.9
					C150.4,613.3,147.6,613.3,147.6,615L147.6,615z"/>
			</g>
		</g>
		<line class="st11" x1="170.7" y1="599" x2="170.7" y2="636"/>
	</g>
</g>

<!-- RAIN 500 - SVG -->
<g id="rain">
	<path class="st5" d="M209.3,683.5c0-11.3-9.1-20.4-20.4-20.4s-20.4,9.2-20.4,20.4c0,0-17.2-1.1-17.2,17.2
		c0,16.8,18.2,16.2,18.2,16.2h60.3c0,0,13.8,0.2,13.8-10.9c0-11.6-13-11.2-13-11.2s0.8-7.3-6.5-11.6
		C215.9,678.5,209.3,683.5,209.3,683.5z"/>
	<path class="st2" d="M162.5,701.9c0-17.3-14-31.4-31.3-31.4S99.7,684.6,99.7,702c0,0-26.4-0.3-26.4,27.8
		c0,25.8,27.9,26.3,27.9,26.3h92.6c0,0,21.2-1,21.2-18.1c0-17.8-19.9-17.8-19.9-17.8s1.2-11.5-10-18.1
		C172.5,694.5,162.5,701.9,162.5,701.9z"/>
	<g>
		<g>
			<g>
				<path class="st9" d="M106,741.1c0,12.6,0,25.3,0,37.9c0,1.8,2.8,1.8,2.8,0c0-12.6,0-25.3,0-37.9
					C108.8,739.3,106,739.3,106,741.1L106,741.1z"/>
			</g>
		</g>
		<g>
			<g>
				<path class="st9" d="M126.8,731.1c0,15.6,0,31.3,0,46.9c0,1.8,2.8,1.8,2.8,0c0-15.6,0-31.3,0-46.9
					C129.6,729.3,126.8,729.3,126.8,731.1L126.8,731.1z"/>
			</g>
		</g>
		<g>
			<g>
				<path class="st9" d="M147.6,741.9c0,12.6,0,25.3,0,37.9c0,1.8,2.8,1.8,2.8,0c0-12.6,0-25.3,0-37.9
					C150.4,740.1,147.6,740.1,147.6,741.9L147.6,741.9z"/>
			</g>
		</g>
		<g>
			<g>
				<path class="st9" d="M168.5,726.2c0,12.6,0,25.3,0,37.9c0,1.8,2.8,1.8,2.8,0c0-12.6,0-25.3,0-37.9
					C171.2,724.4,168.5,724.4,168.5,726.2L168.5,726.2z"/>
			</g>
		</g>
	</g>
</g>

<!-- THUNDERSTORM 200 - DAY SVG -->
<g id="thunderstorm">
	<polygon class="st7" points="213.5,838.3 235.9,838.3 212.2,866.1 234.3,866.3 199.7,899.8 213.5,870.9 192.8,870.6 	"/>
	<path class="st5" d="M212.7,812.6c0-11.3-9.1-20.4-20.4-20.4s-20.4,9.2-20.4,20.4c0,0-17.2-0.6-17.2,17.7
		c0,16.8,18.2,16.7,18.2,16.7H233c0,0,13.8-0.2,13.8-11.3c0-11.6-13-11.4-13-11.4s0.8-7.4-6.5-11.7
		C219.2,807.7,212.7,812.6,212.7,812.6z"/>
	<polygon class="st7" points="170.4,862.3 192.8,862.3 169,890.1 191.1,890.4 156.6,923.8 170.4,894.9 149.7,894.7 	"/>
	<path class="st2" d="M165.8,831c0-17.3-14-31.4-31.3-31.4c-17.3,0-31.4,14.1-31.4,31.4c0,0-26.4-1.4-26.4,26.7
		c0,25.8,27.9,25.2,27.9,25.2h92.6c0,0,21.2,0,21.2-17c0-17.8-19.9-17.3-19.9-17.3s1.2-11.2-10-17.9
		C175.8,823.4,165.8,831,165.8,831z"/>
	<g>
		<g>
			<g>
				<path class="st9" d="M98.5,870.2c0,12.6,0,25.3,0,37.9c0,1.8,2.8,1.8,2.8,0c0-12.6,0-25.3,0-37.9
					C101.3,868.4,98.5,868.4,98.5,870.2L98.5,870.2z"/>
			</g>
		</g>
		<g>
			<g>
				<path class="st9" d="M119.4,860.2c0,15.6,0,31.3,0,46.9c0,1.8,2.8,1.8,2.8,0c0-15.6,0-31.3,0-46.9
					C122.1,858.5,119.4,858.5,119.4,860.2L119.4,860.2z"/>
			</g>
		</g>
		<g>
			<g>
				<path class="st9" d="M140.2,871c0,12.6,0,25.3,0,37.9c0,1.8,2.8,1.8,2.8,0c0-12.6,0-25.3,0-37.9
					C142.9,869.2,140.2,869.2,140.2,871L140.2,871z"/>
			</g>
		</g>
	</g>
</g>

<!-- SNOW 600 - DAY SVG -->
<g id="snow">
	<path class="st7" d="M151.1,987.2l-5.8,4.7l-2.7-10.4l7.4,0.9l6.6-8.7l-4.2-10l-10.8-1.3L135,971l2.5,5.9l-9.3-2.6l5.2-5l-2.7-10.5
		l-10.5-3l-7.8,7.6l2.7,10.5l7.1,2l-6.9,6.7l-0.6-6.5l-9.9-4.5L96,978l1.1,10.8l9.9,4.5l6.1-4.4l2.7,10.5l-7.5-1.3l-7,8.3l3.7,10.2
		l10.7,1.9l7-8.3l-2.4-6.5l9.8,2.8l-5.4,5.3l2.7,10.5l10.5,2.9l7.8-7.6l-2.7-10.5l-7.1-2l7.3-7.1l1,6.8l10.1,4l8.5-6.8l-1.6-10.8
		L151.1,987.2z M142.2,994.1l-9.7,9.4l-13-3.7l-3.3-13.1l9.7-9.4l13,3.7L142.2,994.1z"/>
	<path class="st7" d="M190,976.9l-3.7,0.6l1.5-5.2l3,2.2l5-2.1l0.7-5.4l-4.3-3.3l-5,2.1l-0.4,3.2l-3.4-3.5l3.5-0.9l1.5-5.2l-3.8-3.9
		l-5.3,1.3l-1.5,5.2l2.6,2.6l-4.7,1.2l1.3-3l-3.2-4.4l-5.4,0.5l-2.2,5l3.2,4.4l3.8-0.4l-1.5,5.2l-2.9-2.4l-5.1,1.9l-1,5.4l4.2,3.5
		l5.1-1.9l0.6-3.4l3.6,3.7l-3.6,0.9l-1.5,5.2l3.8,3.9l5.3-1.3l1.5-5.2l-2.6-2.7l4.9-1.3l-1.2,3.2l3.4,4.2l5.4-0.8l2-5.1L190,976.9z
		 M184.4,977.6l-6.5,1.7l-4.7-4.8l1.8-6.5l6.5-1.7l4.7,4.8L184.4,977.6z"/>
	<path class="st7" d="M210,1018.3l-3.1,2.1l-1-5.3l3.7,0.7l3.6-4.1l-1.8-5.1l-5.3-1l-3.6,4.1l1.1,3l-4.6-1.6l2.7-2.4l-1-5.3
		l-5.1-1.8l-4.1,3.5l1,5.3l3.5,1.2l-3.7,3.1l-0.1-3.2l-4.8-2.6l-4.6,2.9l0.2,5.4l4.8,2.6l3.2-2l1,5.3l-3.7-0.9l-3.8,3.9l1.5,5.2
		l5.3,1.3l3.8-3.9l-1-3.3l4.8,1.7l-2.9,2.4l1,5.3l5.1,1.8l4.1-3.5l-1-5.3l-3.5-1.2l3.9-3.3l0.3,3.4l4.9,2.3l4.5-3.1l-0.5-5.4
		L210,1018.3z M205.4,1021.5l-5.1,4.4l-6.4-2.3l-1.2-6.6l5.1-4.4l6.4,2.2L205.4,1021.5z"/>
</g>

<!-- ATMOSPHERE / MIST 700 - DAY SVG -->
<g id="atmosphere">
	<path class="st1" d="M419.3,751.2c0-17.3-14-31.4-31.3-31.4c-17.3,0-31.4,14.1-31.4,31.4c0,0-26.4-0.9-26.4,27.2
		c0,25.8,27.9,25.7,27.9,25.7h92.6c0,0,21.2-0.4,21.2-17.5c0-17.8-19.9-17.5-19.9-17.5s1.2-11.3-10-18
		C429.4,743.6,419.3,751.2,419.3,751.2z"/>
	<g>
		<g>
			<path class="st10" d="M389.7,800c36.2,0,72.4,0,108.7,0c1.8,0,1.8-2.8,0-2.8c-36.2,0-72.4,0-108.7,0
				C387.9,797.3,387.9,800,389.7,800L389.7,800z"/>
		</g>
	</g>
	<g>
		<g>
			<path class="st10" d="M336,811.6c43,0,86,0,129,0c1.8,0,1.8-2.8,0-2.8c-43,0-86,0-129,0C334.3,808.9,334.3,811.6,336,811.6
				L336,811.6z"/>
		</g>
	</g>
	<g>
		<g>
			<path class="st10" d="M371.7,784.9c36.2,0,72.4,0,108.7,0c1.8,0,1.8-2.8,0-2.8c-36.2,0-72.4,0-108.7,0
				C369.9,782.2,369.9,784.9,371.7,784.9L371.7,784.9z"/>
		</g>
	</g>
	<line class="st4" x1="393.2" y1="768.5" x2="501.2" y2="768.5"/>
</g>

<!-- CLEAR 800 - DAY SVG -->
<g id="clear-day">
	<circle class="st3" cx="125.8" cy="74.7" r="26"/>
	<g>
		<line class="st0" x1="123.7" y1="41" x2="123.7" y2="34"/>
		<line class="st0" x1="123.7" y1="108" x2="123.7" y2="118"/>
		<line class="st0" x1="160.2" y1="76.5" x2="167.2" y2="76.5"/>
		<line class="st0" x1="84.2" y1="76.5" x2="94.2" y2="76.5"/>
		<line class="st8" x1="154.8" y1="58.8" x2="162.3" y2="54.5"/>
		<line class="st8" x1="143.1" y1="46.6" x2="147.4" y2="39.1"/>
		<line class="st8" x1="97.2" y1="58.8" x2="89.7" y2="54.5"/>
		<line class="st8" x1="109.2" y1="46.6" x2="104.8" y2="39.1"/>
		<line class="st8" x1="97.1" y1="90.5" x2="89.5" y2="94.8"/>
		<line class="st8" x1="108.5" y1="102.5" x2="104.1" y2="110"/>
		<line class="st8" x1="154.9" y1="90.5" x2="162.4" y2="94.8"/>
		<line class="st8" x1="143.5" y1="102.5" x2="147.8" y2="110"/>
	</g>
</g>

<!-- CLEAR 800 - NIGHT SVG -->
<g id="clear-night">
	<path class="st6" d="M431.6,123.9c-3,0.4-7-0.5-8.9-1.3c-0.8-0.4-3.8-1-3.3-4.5c1.4-9.4,7-13.1,9.4-14.6c2.5-1.6,6.5-1.8,10.1-1.2
		c0,0,2.7-4.5,8.7-7.7c5.9-3.2,11.8-3.9,14.7-3.7c1.3,0.1,1.4,1.7,0.8,2.8c-0.5,1.2-4.8,2.5-4.8,2.5s3.9,0,6,0.9
		c0.7,0.3,1.2,0.6,1.5,1c1.3-3.9,2-8.1,2-12.5c0-22.2-18-40.2-40.2-40.2c-22.2,0-40.2,18-40.2,40.2s18,40.2,40.2,40.2
		c1.1,0,2.2,0,3.3-0.1C431.2,124.6,432,123.8,431.6,123.9z"/>
	<path class="st6" d="M430.6,109.9c-1.6,0-3,1.3-3,3s1.3,3,3,3c1.6,0,3-1.3,3-3S432.2,109.9,430.6,109.9z"/>
	<path class="st6" d="M456.1,103.3c-2,0.6-10.2,4.7-9.7,5.1c0.3,0.3,0.6,0.7,1,4.5c0.1,0.8,3.9,2.7,5.8,3.7
		c5.1-4.2,9.1-9.6,11.6-15.8C462.9,101.6,458.9,102.4,456.1,103.3z"/>
</g>

<!-- FEW CLOUDS 801 - NIGHT SVG -->
<g id="few-clouds-night">
	<g>
		<path class="st6" d="M481.9,265.4c-3,0.4-7-0.5-8.9-1.3c-0.8-0.4-3.8-1-3.3-4.5c1.4-9.4,7-13.1,9.4-14.6c2.5-1.6,6.5-1.8,10.1-1.2
			c0,0,2.7-4.5,8.7-7.7c6-3.2,11.8-3.9,14.7-3.7c1.3,0.1,1.4,1.7,0.8,2.8c-0.5,1.2-4.8,2.5-4.8,2.5s3.9,0,6,0.9
			c0.7,0.3,1.2,0.6,1.5,1c1.3-3.9,2-8.1,2-12.5c0-22.2-18-40.2-40.2-40.2c-22.2,0-40.2,18-40.2,40.2c0,22.2,18,40.2,40.2,40.2
			c1.1,0,2.2,0,3.3-0.1C481.6,266.2,482.4,265.4,481.9,265.4z"/>
		<circle class="st6" cx="481" cy="254.4" r="3"/>
		<path class="st6" d="M506.5,244.8c-2,0.6-10.2,4.7-9.7,5.1c0.3,0.3,0.6,0.7,1,4.5c0.1,0.8,3.9,2.7,5.8,3.7
			c5.1-4.2,9.1-9.6,11.6-15.8C513.3,243.1,509.3,243.9,506.5,244.8z"/>
	</g>
	<path class="st7" d="M431.1,193.2c0-17.3-14-31.4-31.3-31.4c-17.3,0-31.4,14.1-31.4,31.4c0,0-26.4-1.4-26.4,26.6
		c0,25.8,27.9,25.2,27.9,25.2h92.6c0,0,21.2,0.1,21.2-17c0-17.8-19.9-17.3-19.9-17.3s1.2-11.2-10-17.8
		C441.2,185.5,431.1,193.2,431.1,193.2z"/>
</g>

<!-- WINDY 905, 956-959 - SVG -->
<g id="windy">
	<path class="st1" d="M418.5,902.6c0-17.3-14-31.4-31.3-31.4s-31.4,14.1-31.4,31.4c0,0-26.4-1.1-26.4,26.9
		c0,25.8,27.9,25.5,27.9,25.5h92.6c0,0,21.2-0.2,21.2-17.2c0-17.8-19.9-17.4-19.9-17.4s1.2-11.3-10-17.9
		C428.5,895,418.5,902.6,418.5,902.6z"/>
	<g>
		<g>
			<path class="st2" d="M401.2,932.9c24.5,0,49,0,73.5,0c8.5,0,18.6,1.1,26.5-2.8c7.7-3.8,9.2-14.9,3.9-21.3
				c-6.4-7.7-17.6-7.5-23.9,0.2c-1.1,1.4,0.8,3.3,2,2c9.1-11.2,27.6-1.2,21.1,12.3c-2.5,5.2-10.7,6.9-15.5,6.9c-8.6,0-17.3,0-25.9,0
				c-20.5,0-41,0-61.6,0C399.4,930.1,399.4,932.9,401.2,932.9L401.2,932.9z"/>
		</g>
	</g>
	<g>
		<g>
			<path class="st2" d="M372.7,944.7c44.4,0,88.7,0,133.1,0c9.8,0,20-1,28.3-6.6c10.2-6.9,14.5-19.3,12.6-31.2
				c-1.9-12.3-11.8-22.1-23.5-25.5c-13-3.8-26.7,1.9-34.7,12.4c-1.1,1.4,1.3,2.8,2.4,1.4c8.8-11.6,24.2-15.2,37.3-8.9
				c11.6,5.7,17.7,18.9,15.8,31.4c-1.9,12.3-12.3,21-24.1,23.2c-4.6,0.9-10,1-14.8,1c-24.6,0-49.3,0-73.9,0c-19.5,0-39.1,0-58.6,0
				C370.9,941.9,370.9,944.7,372.7,944.7L372.7,944.7z"/>
		</g>
	</g>
	<g>
		<g>
			<path class="st2" d="M382.2,951.9c20.2,0,40.4,0,60.6,0c8.9,0,17.8,0,26.7,0c4.8,0,11.9,1.6,15.1,5.8c3.6,4.8,1.8,11.5-2.2,15.4
				c-5.4,5.4-13.9,3.4-18.3-2.1c-1.1-1.4-3.1,0.6-2,2c6,7.4,16.4,7.9,23.1,1.2c6.3-6.3,4.7-16.6-2.1-21.6c-3.5-2.6-9.6-3.4-13.9-3.4
				c-4.3,0-8.5,0-12.8,0c-24.8,0-49.5,0-74.2,0C380.4,949.1,380.4,951.9,382.2,951.9L382.2,951.9z"/>
		</g>
	</g>
</g>
</svg>
